Motion_kv06_l
version=1
nRows=6
nColumns=43
inDegrees=yes
endheader
time	pelvis_tilt	pelvis_list	pelvis_rotation	pelvis_tx	pelvis_ty	pelvis_tz	hip_flexion_r	hip_adduction_r	hip_rotation_r	knee_angle_r	ankle_angle_r	subtalar_angle_r	mtp_angle_r	hip_flexion_l	hip_adduction_l	hip_rotation_l	knee_angle_l	ankle_angle_l	subtalar_angle_l	mtp_angle_l	lumbar_extension	lumbar_bending	lumbar_rotation	neck_flexion	neck_lateral_bending	neck_rotation	arm_flex_r	arm_add_r	arm_rot_r	elbow_flex_r	pro_sup_r	wrist_flex_r	wrist_dev_r	hand_finger_flex_r	arm_flex_l	arm_add_l	arm_rot_l	elbow_flex_l	pro_sup_l	wrist_flex_l	wrist_dev_l	hand_finger_flex_l
      0.00250000	      0.34886723	    -25.60858020	     89.23050259	     -0.01166664	      0.74508059	      1.96123689	     74.50744882	     -4.82319029	     -2.68284736	    -86.64508007	     18.67364430	     -2.14263179	     15.96169725	     74.66347710	     -6.96487757	     -0.09718211	    -87.03906693	     14.63578961	     20.18642582	     34.72428765	    -39.02602775	     -0.50687095	      0.98342085	     54.19505608	     -1.98598694	     -7.44737992	    133.58855163	    -23.82170236	     17.81418767	     52.73345711	    149.08646651	     12.34713142	    -15.94887773	     65.55203016	    -34.73893323	   -156.50544042	   -139.77067457	     36.27956374	    129.95230536	      5.93772993	    -12.98844414	     69.39520170
      0.00500000	      0.34474780	    -25.61080167	     89.16683808	     -0.01172096	      0.74267965	      1.96278667	     74.83871099	     -4.76403506	     -2.68508998	    -87.00024089	     18.82526619	     -2.20533180	     15.96987135	     74.94584862	     -6.95195916	     -0.07979865	    -87.39220773	     15.02773974	     19.97559635	     34.78255184	    -39.17224735	     -0.51840512	      1.03655661	     55.08091011	     -1.87912984	     -7.42218585	    134.18074009	    -23.47533456	     17.56256219	     52.32794912	    148.96211967	     12.29609342	    -15.60210065	     65.56002995	    -34.22963921	   -156.81040517	   -140.14132394	     35.79622442	    130.08929194	      5.87336178	    -12.81073421	     69.70570294
      0.00750000	      0.32005216	    -25.59627389	     89.10622841	     -0.01170464	      0.74008910	      1.96436090	     75.17911124	     -4.72311685	     -2.69408284	    -87.40058292	     19.03246162	     -2.38972229	     15.95859941	     75.25355640	     -6.93162908	     -0.04859840	    -87.80354291	     15.35126090	     19.80758529	     34.81724673	    -39.29183033	     -0.55097819	      1.04755465	     55.69348288	     -1.85950798	     -7.38827486	    134.76533081	    -23.10578897	     17.34411610	     51.82563164	    149.00193415	     12.24206374	    -15.27293795	     65.59467540	    -33.69295804	   -157.15708973	   -140.41720634	     35.19284965	    130.30735993	      5.83132937	    -12.67067308	     70.00851204
      0.01000000	      0.29570248	    -25.59400449	     89.05158804	     -0.01175867	      0.73748931	      1.96589031	     75.53029640	     -4.68419287	     -2.70353188	    -87.80348878	     19.22583537	     -2.62679427	     15.91966380	     75.56995554	     -6.89495018	     -0.02317375	    -88.21523443	     15.66327154	     19.64953789	     34.83269645	    -39.37951722	     -0.56807285	      1.06115180	     56.27450205	     -1.83778548	     -7.36143238	    135.30695779	    -22.72462354	     17.10227212	     51.33972846	    149.14585026	     12.16608742	    -15.00026898	     65.64618370	    -33.18585298	   -157.48152498	   -140.66306760	     34.58313800	    130.54639155	      5.77997506	    -12.59850762	     70.28542813
      0.01250000	      0.27173528	    -25.65426519	     88.98477998	     -0.01159134	      0.73479908	      1.96738013	     75.95523705	     -4.57483238	     -2.72485280	    -88.20934315	     19.23156077	     -3.36039706	     15.29517546	     75.95965097	     -6.88130958	     -0.00759861	    -88.64120660	     15.88722556	     19.21642200	     34.56537724	    -39.36262558	     -0.64191839	      0.99655980	     56.74347251	     -1.63235753	     -7.23484277	    135.50132936	    -22.12718160	     16.10928071	     51.01061788	    150.14816899	     11.98562879	    -14.78299596	     66.43974456	    -32.76354840	   -158.01426690	   -141.58757594	     33.72280634	    131.91510517	      5.60384041	    -13.58064689	     72.17455806
      0.01500000	      0.23691450	    -25.68475610	     88.93418449	     -0.01177603	      0.73218957	      1.96881794	     76.31113657	     -4.55943348	     -2.72292428	    -88.58734549	     19.56219745	     -3.45801257	     15.26850066	     76.28128137	     -6.82179521	      0.00126879	    -89.02564341	     16.26700184	     19.18092961	     34.57691312	    -39.38858669	     -0.63418669	      1.01082957	     57.31117937	     -1.70134487	     -7.24157108	    136.02261282	    -21.76199729	     15.93488645	     50.52544494	    150.29971516	     11.89993312	    -14.71346166	     66.40610514	    -32.35393218	   -158.24304701	   -141.77690675	     33.24911581	    132.06060835	      5.44155198	    -13.38320614	     72.18046145
